<svg width="24" height="24" viewBox="0 0 24 24" fill="none" xmlns="http://www.w3.org/2000/svg">
<circle cx="12" cy="12" r="12" fill="#FFCA7F"/>
<path fill-rule="evenodd" clip-rule="evenodd" d="M12.2176 7.55097L7.33394 12.5826H11.4152C11.6035 12.5821 11.7892 12.6273 11.9563 12.7142C12.1238 12.8013 12.2675 12.9277 12.3754 13.0826C12.4832 13.2375 12.5519 13.4162 12.5755 13.6034C12.5984 13.7851 12.5781 13.9696 12.5166 14.1419L11.7812 16.4475L16.6648 11.4159H12.5836C12.3952 11.4164 12.2096 11.3712 12.0424 11.2843C11.875 11.1972 11.7312 11.0708 11.6234 10.9159C11.5156 10.761 11.4469 10.5823 11.4233 10.3951C11.4004 10.2134 11.4206 10.0289 11.4822 9.85659L12.2176 7.55097ZM12.714 5.59564C12.9092 5.55955 13.1108 5.59088 13.2859 5.68449C13.4609 5.7781 13.5989 5.92843 13.6772 6.1108C13.7555 6.29317 13.7695 6.49675 13.7168 6.68811C13.7148 6.69567 13.7125 6.70319 13.7101 6.71066L12.5901 10.2223C12.5873 10.2314 12.5841 10.2403 12.5808 10.2492C12.5815 10.2492 12.5821 10.2492 12.5827 10.2492H16.6653C16.8856 10.2487 17.1016 10.3106 17.2883 10.4278C17.4753 10.5451 17.6251 10.7132 17.7204 10.9123C17.8157 11.1115 17.8526 11.3336 17.8266 11.5528C17.8007 11.7721 17.7132 11.9795 17.5741 12.1509C17.5632 12.1643 17.5517 12.1773 17.5396 12.1897L11.773 18.131C11.6445 18.2724 11.473 18.368 11.2847 18.4028C11.0896 18.4389 10.8879 18.4076 10.7129 18.314C10.5379 18.2204 10.3999 18.07 10.3216 17.8877C10.2433 17.7053 10.2293 17.5017 10.2819 17.3104C10.284 17.3028 10.2863 17.2953 10.2886 17.2878L11.4086 13.7762C11.4115 13.7671 11.4146 13.7581 11.4179 13.7492C11.4173 13.7492 11.4167 13.7492 11.4161 13.7492H7.33347C7.11313 13.7498 6.89713 13.6879 6.71049 13.5707C6.5235 13.4533 6.37365 13.2853 6.27835 13.0862C6.18305 12.887 6.14622 12.6649 6.17212 12.4457C6.19803 12.2264 6.28562 12.019 6.42471 11.8476C6.4356 11.8341 6.44709 11.8212 6.45913 11.8088L12.2257 5.86747C12.3543 5.72606 12.5257 5.63047 12.714 5.59564Z" fill="white"/>
<path d="M6.75 12.8753L12.5833 7.04199L12 10.542L17.25 11.417L10.8333 17.2503L11.7083 13.167L6.75 12.8753Z" fill="white"/>
</svg>
