<svg width="28" height="28" viewBox="0 0 28 28" fill="none" xmlns="http://www.w3.org/2000/svg">
<rect width="28" height="28" rx="14" fill="black"/>
<g clip-path="url(#clip0_1887_10902)">
<path d="M13.7747 9.50769C14.4507 9.50769 15.2981 9.04386 15.8027 8.42543C16.2598 7.86497 16.593 7.08226 16.593 6.29955C16.593 6.19326 16.5835 6.08697 16.5645 6C15.8123 6.02899 14.9077 6.51214 14.365 7.15957C13.9365 7.65238 13.5461 8.42543 13.5461 9.2178C13.5461 9.33376 13.5652 9.44971 13.5747 9.48837C13.6223 9.49803 13.6985 9.50769 13.7747 9.50769ZM11.3943 21.2C12.3179 21.2 12.7273 20.5719 13.8794 20.5719C15.0505 20.5719 15.3076 21.1807 16.3359 21.1807C17.3452 21.1807 18.0212 20.2337 18.6592 19.306C19.3733 18.2431 19.6685 17.1995 19.6875 17.1512C19.6208 17.1319 17.688 16.3298 17.688 14.0783C17.688 12.1264 19.2114 11.247 19.2971 11.1794C18.2878 9.71062 16.7549 9.67197 16.3359 9.67197C15.2029 9.67197 14.2793 10.3677 13.6985 10.3677C13.0701 10.3677 12.2417 9.71062 11.261 9.71062C9.39478 9.71062 7.5 11.276 7.5 14.2329C7.5 16.0689 8.20459 18.0112 9.07104 19.2674C9.81372 20.3303 10.4612 21.2 11.3943 21.2Z" fill="white"/>
</g>
<defs>
<clipPath id="clip0_1887_10902">
<rect width="13" height="16" fill="white" transform="translate(7.5 6)"/>
</clipPath>
</defs>
</svg>
