<svg width="24" height="24" viewBox="0 0 24 24" fill="none" xmlns="http://www.w3.org/2000/svg">
<circle cx="12" cy="12" r="12" fill="#CBBEF4"/>
<path fill-rule="evenodd" clip-rule="evenodd" d="M11.9369 6.77234C10.8581 7.71344 9.27063 8.49994 7.91667 8.49994V12.5833C7.91667 13.8876 8.3663 14.8355 9.0756 15.562C9.8008 16.3047 10.8238 16.8415 11.9979 17.2469C12.0023 17.2484 12.0067 17.25 12.0111 17.2516C13.1807 16.8434 14.2009 16.3057 14.9248 15.5631C15.6337 14.8357 16.0833 13.8875 16.0833 12.5833V8.49994C14.7298 8.49994 13.1482 7.7197 12.0631 6.7723C12.0453 6.75769 12.023 6.74967 12 6.74967C11.977 6.74967 11.9546 6.7577 11.9369 6.77234ZM11.1777 5.88643C11.407 5.6906 11.6985 5.58301 12 5.58301C12.3015 5.58301 12.593 5.6906 12.8223 5.88643C12.8239 5.88787 12.8256 5.88932 12.8273 5.89078C13.7837 6.72693 15.105 7.33327 16.0833 7.33327C16.3928 7.33327 16.6895 7.45619 16.9083 7.67498C17.1271 7.89377 17.25 8.19052 17.25 8.49994V12.5833C17.25 14.1957 16.6788 15.435 15.7602 16.3774C14.8575 17.3035 13.6454 17.9175 12.3903 18.3549C12.3887 18.3555 12.3871 18.356 12.3855 18.3566C12.134 18.4418 11.8609 18.4387 11.6115 18.3477C10.3551 17.9133 9.14328 17.3013 8.24085 16.377C7.3212 15.4352 6.75 14.1956 6.75 12.5833V8.49994C6.75 8.19052 6.87292 7.89377 7.09171 7.67498C7.3105 7.45619 7.60725 7.33327 7.91667 7.33327C8.89456 7.33327 10.2218 6.72149 11.1729 5.89062C11.1745 5.88921 11.1761 5.88782 11.1777 5.88643Z" fill="white"/>
<path d="M7.625 8.20801L12 6.45801L14.0417 7.62467L16.6667 8.20801V10.5413L16.375 14.0413L15.2083 16.3747L12 17.833L8.20833 15.4997L7.625 12.8747V8.20801Z" fill="white"/>
</svg>
