<svg width="24" height="24" viewBox="0 0 24 24" fill="none" xmlns="http://www.w3.org/2000/svg">
<path d="M12 0C18.6274 0 24 5.37258 24 12C24 18.6274 18.6274 24 12 24C9.62034 24 7.40454 23.3041 5.53906 22.1094L1.85547 23.0977C1.11192 23.2969 0.431683 22.6166 0.630859 21.873L1.64844 18.0693C0.602017 16.2885 0 14.2149 0 12C0 5.37258 5.37258 0 12 0ZM7.2002 11C6.53745 11 6 11.5375 6 12.2002C6.00011 12.8628 6.53752 13.4004 7.2002 13.4004C7.86278 13.4003 8.40028 12.8628 8.40039 12.2002C8.40039 11.5375 7.86285 11.0001 7.2002 11ZM12.1006 11C11.4378 11 10.9004 11.5375 10.9004 12.2002C10.9005 12.8628 11.4379 13.4004 12.1006 13.4004C12.7632 13.4003 13.3007 12.8628 13.3008 12.2002C13.3008 11.5375 12.7632 11.0001 12.1006 11ZM17.001 11C16.3382 11 15.8008 11.5375 15.8008 12.2002C15.8009 12.8628 16.3383 13.4004 17.001 13.4004C17.6636 13.4003 18.2011 12.8628 18.2012 12.2002C18.2012 11.5375 17.6636 11.0001 17.001 11Z" fill="white"/>
</svg>
