<svg width="24" height="24" viewBox="0 0 24 24" fill="none" xmlns="http://www.w3.org/2000/svg">
<path d="M11.999 1.71423C17.6796 1.71423 22.2851 6.31975 22.2852 12.0004C22.285 17.6808 17.6795 22.2855 11.999 22.2855C9.95977 22.2854 8.06064 21.6891 6.46191 20.6654L3.30273 21.5121C2.66555 21.6825 2.08224 21.0995 2.25293 20.4623L3.12598 17.2015C2.22943 15.6754 1.71296 13.8983 1.71289 12.0004C1.71292 6.31989 6.31859 1.71446 11.999 1.71423ZM7.88574 11.1429C7.31773 11.1429 6.85751 11.6033 6.85742 12.1713C6.85742 12.7393 7.31768 13.1996 7.88574 13.1996C8.45379 13.1996 8.91406 12.7393 8.91406 12.1713C8.91397 11.6033 8.45374 11.143 7.88574 11.1429ZM12.0859 11.1429C11.518 11.143 11.0577 11.6033 11.0576 12.1713C11.0576 12.7393 11.5179 13.1995 12.0859 13.1996C12.654 13.1996 13.1143 12.7393 13.1143 12.1713C13.1142 11.6033 12.6539 11.1429 12.0859 11.1429ZM16.2861 11.1429C15.7182 11.1431 15.2579 11.6034 15.2578 12.1713C15.2578 12.7392 15.7182 13.1994 16.2861 13.1996C16.8542 13.1996 17.3154 12.7393 17.3154 12.1713C17.3153 11.6033 16.8541 11.1429 16.2861 11.1429Z" fill="#3F3F46"/>
</svg>
