<svg width="20" height="20" viewBox="0 0 20 20" fill="none" xmlns="http://www.w3.org/2000/svg">
<g clip-path="url(#clip0_430_16705)">
<path fill-rule="evenodd" clip-rule="evenodd" d="M8.33301 7.49967C7.87277 7.49967 7.49967 7.87277 7.49967 8.33301V16.6663C7.49967 17.1266 7.87277 17.4997 8.33301 17.4997H16.6663C17.1266 17.4997 17.4997 17.1266 17.4997 16.6663V8.33301C17.4997 7.87277 17.1266 7.49967 16.6663 7.49967H8.33301ZM5.83301 8.33301C5.83301 6.9523 6.9523 5.83301 8.33301 5.83301H16.6663C18.0471 5.83301 19.1663 6.9523 19.1663 8.33301V16.6663C19.1663 18.0471 18.0471 19.1663 16.6663 19.1663H8.33301C6.9523 19.1663 5.83301 18.0471 5.83301 16.6663V8.33301Z" fill="#70707B"/>
<path fill-rule="evenodd" clip-rule="evenodd" d="M3.33301 2.49967C2.87658 2.49967 2.49967 2.87658 2.49967 3.33301V11.6663C2.49967 12.1228 2.87658 12.4997 3.33301 12.4997C3.79325 12.4997 4.16634 12.8728 4.16634 13.333C4.16634 13.7932 3.79325 14.1663 3.33301 14.1663C1.9561 14.1663 0.833008 13.0432 0.833008 11.6663V3.33301C0.833008 1.9561 1.9561 0.833008 3.33301 0.833008H11.6663C13.0432 0.833008 14.1663 1.9561 14.1663 3.33301C14.1663 3.79325 13.7932 4.16634 13.333 4.16634C12.8728 4.16634 12.4997 3.79325 12.4997 3.33301C12.4997 2.87658 12.1228 2.49967 11.6663 2.49967H3.33301Z" fill="#70707B"/>
</g>
<defs>
<clipPath id="clip0_430_16705">
<rect width="20" height="20" fill="white"/>
</clipPath>
</defs>
</svg>
