<svg width="29" height="28" viewBox="0 0 29 28" fill="none" xmlns="http://www.w3.org/2000/svg">
<rect x="0.5" width="28" height="28" rx="14" fill="#26272B"/>
<path fill-rule="evenodd" clip-rule="evenodd" d="M13.1995 10.0612C12.4691 9.93177 11.7171 10.0079 11.0275 10.2813C10.3379 10.5546 9.73786 11.0143 9.29448 11.609C8.85109 12.2037 8.58182 12.9099 8.51673 13.6489C8.45165 14.3878 8.59332 15.1303 8.92592 15.7933C9.25852 16.4564 9.76894 17.0139 10.4002 17.4035C11.0313 17.7932 11.7584 17.9996 12.5001 17.9998C12.5002 17.9998 12.5002 17.9998 12.5003 17.9998H18.1668C18.7856 17.9998 19.3791 17.754 19.8167 17.3164C20.2543 16.8788 20.5001 16.2853 20.5001 15.6665C20.5001 15.0477 20.2543 14.4542 19.8167 14.0166C19.3791 13.579 18.7856 13.3332 18.1668 13.3332H16.9734C16.6786 13.3332 16.4188 13.1395 16.3346 12.857C16.1226 12.1461 15.7172 11.5082 15.1636 11.0145C14.6099 10.5208 13.9299 10.1907 13.1995 10.0612ZM10.5362 9.04173C11.4557 8.67731 12.4584 8.57574 13.4322 8.74838C14.4061 8.92102 15.3128 9.36107 16.051 10.0193C16.6632 10.5653 17.1395 11.2435 17.4454 11.9998H18.1668C19.1392 11.9998 20.0719 12.3861 20.7595 13.0738C21.4471 13.7614 21.8334 14.694 21.8334 15.6665C21.8334 16.639 21.4471 17.5716 20.7595 18.2592C20.0719 18.9469 19.1392 19.3332 18.1668 19.3332H12.4999C11.5109 19.3329 10.5414 19.0576 9.69977 18.5381C8.85815 18.0186 8.17759 17.2752 7.73412 16.3912C7.29066 15.5071 7.10176 14.5171 7.18854 13.5319C7.27532 12.5467 7.63436 11.6049 8.22553 10.812C8.81671 10.0191 9.61673 9.40616 10.5362 9.04173Z" fill="white"/>
<circle cx="12.5" cy="14" r="4" fill="white"/>
<rect x="11.833" y="12.6665" width="6.66667" height="5.33333" fill="white"/>
<rect x="14.5" y="13.3335" width="6" height="4.66667" fill="white"/>
</svg>
