<svg width="29" height="28" viewBox="0 0 29 28" fill="none" xmlns="http://www.w3.org/2000/svg">
<rect x="0.5" width="28" height="28" rx="14" fill="currentColor"/>
<path fill-rule="evenodd" clip-rule="evenodd" d="M8.4362 8.6027C9.24885 7.79004 10.3511 7.3335 11.5003 7.3335C12.1538 7.3335 12.7491 7.42695 13.3315 7.68062C13.7401 7.85858 14.1217 8.10641 14.5003 8.42639C14.8789 8.10641 15.2605 7.85858 15.6691 7.68062C16.2515 7.42695 16.8469 7.3335 17.5003 7.3335C18.6496 7.3335 19.7518 7.79004 20.5645 8.6027C21.3771 9.41536 21.8337 10.5176 21.8337 11.6668C21.8337 13.4947 20.6275 14.8355 19.6361 15.8072L14.9717 20.4716C14.7114 20.7319 14.2893 20.7319 14.0289 20.4716L9.36621 15.8089C8.36326 14.8388 7.16699 13.4998 7.16699 11.6668C7.16699 10.5176 7.62354 9.41536 8.4362 8.6027ZM11.5003 8.66683C10.7047 8.66683 9.94161 8.9829 9.379 9.54551C8.8164 10.1081 8.50033 10.8712 8.50033 11.6668C8.50033 12.8981 9.30079 13.8912 10.297 14.8542C10.2997 14.8568 10.3024 14.8594 10.3051 14.8621L14.5003 19.0574L18.6956 14.8621C18.6972 14.8605 18.6988 14.8589 18.7004 14.8573C19.6952 13.8826 20.5003 12.8908 20.5003 11.6668C20.5003 10.8712 20.1843 10.1081 19.6216 9.54551C19.059 8.9829 18.296 8.66683 17.5003 8.66683C16.9804 8.66683 16.5758 8.74004 16.2015 8.90304C15.823 9.06792 15.4337 9.3429 14.9717 9.8049C14.7114 10.0653 14.2893 10.0653 14.0289 9.8049C13.5669 9.3429 13.1777 9.06792 12.7991 8.90304C12.4249 8.74004 12.0202 8.66683 11.5003 8.66683Z" fill="white"/>
<path d="M12 8L14.5 9.5L17.5 8L19.5 8.5L20.5 10L21 12.5L19 15.5L14.5 20L8.5 13.5L8 11L9.5 8.5L12 8Z" fill="white"/>
</svg>
