<svg width="16" height="16" viewBox="0 0 16 16" fill="none" xmlns="http://www.w3.org/2000/svg">
<path fill-rule="evenodd" clip-rule="evenodd" d="M1.93571 2.60246C2.74837 1.7898 3.85057 1.33325 4.99984 1.33325C5.65329 1.33325 6.24862 1.42671 6.83104 1.68037C7.23963 1.85833 7.62124 2.10617 7.99984 2.42615C8.37844 2.10617 8.76004 1.85833 9.16863 1.68037C9.75105 1.42671 10.3464 1.33325 10.9998 1.33325C12.1491 1.33325 13.2513 1.7898 14.064 2.60246C14.8766 3.41511 15.3332 4.51731 15.3332 5.66659C15.3332 7.49443 14.127 8.83529 13.1356 9.80699L8.47124 14.4713C8.21089 14.7317 7.78878 14.7317 7.52843 14.4713L2.86572 9.80861C1.86277 8.8386 0.666504 7.49951 0.666504 5.66659C0.666504 4.51731 1.12305 3.41511 1.93571 2.60246ZM4.99984 2.66659C4.20419 2.66659 3.44113 2.98266 2.87852 3.54526C2.31591 4.10787 1.99984 4.87094 1.99984 5.66659C1.99984 6.89783 2.8003 7.89092 3.79652 8.85393C3.79923 8.85654 3.80191 8.85918 3.80457 8.86185L7.99984 13.0571L12.1951 8.86185C12.1967 8.86025 12.1983 8.85866 12.1999 8.85708C13.1947 7.88231 13.9998 6.89055 13.9998 5.66659C13.9998 4.87094 13.6838 4.10787 13.1212 3.54526C12.5585 2.98266 11.7955 2.66659 10.9998 2.66659C10.48 2.66659 10.0753 2.7398 9.70104 2.9028C9.32249 3.06767 8.93324 3.34265 8.47124 3.80466C8.21089 4.06501 7.78878 4.06501 7.52843 3.80466C7.06643 3.34265 6.67719 3.06767 6.29863 2.9028C5.92438 2.7398 5.51971 2.66659 4.99984 2.66659Z" fill="#EC4665"/>
<path d="M5.5 2L8 3.5L11 2L13 2.5L14 4L14.5 6.5L12.5 9.5L8 14L2 7.5L1.5 5L3 2.5L5.5 2Z" fill="#EC4665"/>
</svg>
