<svg width="24" height="24" viewBox="0 0 24 24" fill="none" xmlns="http://www.w3.org/2000/svg">
<path d="M11.999 1.71387C17.6795 1.71387 22.2849 6.31955 22.2852 12C22.285 17.6805 17.6795 22.2852 11.999 22.2852C9.95977 22.2851 8.06064 21.6887 6.46191 20.665L3.30273 21.5117C2.66555 21.6822 2.08224 21.0991 2.25293 20.4619L3.12598 17.2012C2.22953 15.6751 1.71296 13.8978 1.71289 12C1.71312 6.31969 6.31871 1.71409 11.999 1.71387ZM14.1221 8C13.3979 8 12.6973 8.23927 12.1279 8.6748C11.927 8.52422 11.7084 8.39697 11.4766 8.29688C11.0658 8.11952 10.6222 8.02988 10.1748 8.03418C9.72747 8.03851 9.28614 8.13708 8.87891 8.32227C8.47155 8.50756 8.10688 8.77587 7.80957 9.11035C7.5124 9.44469 7.28859 9.83761 7.15234 10.2637C7.01614 10.6898 6.97044 11.1402 7.01855 11.585C7.06675 12.0299 7.20727 12.4604 7.43164 12.8477C7.64378 13.2138 7.92653 13.5339 8.2627 13.79L11.5938 17.0283C11.9576 17.3818 12.5366 17.3819 12.9004 17.0283L16.2744 13.7471C16.2775 13.744 16.2811 13.7414 16.2842 13.7383C17.0003 13.0222 17.3737 12.1645 17.3906 11.2891C17.4073 10.4216 17.0722 9.60995 16.5059 8.98047C16.4273 8.89315 16.336 8.82308 16.2373 8.77246C15.6476 8.27504 14.8987 8.0001 14.1221 8Z" fill="#3F3F46"/>
</svg>
