<svg width="24" height="24" viewBox="0 0 24 24" fill="none" xmlns="http://www.w3.org/2000/svg">
<rect width="24" height="24" rx="12" fill="#EC4665"/>
<path fill-rule="evenodd" clip-rule="evenodd" d="M6.69283 7.27632C7.40406 6.56509 8.36869 6.16553 9.37453 6.16553C9.94642 6.16553 10.4675 6.24732 10.9772 6.46933C11.3348 6.62507 11.6688 6.84198 12.0001 7.12202C12.3314 6.84198 12.6654 6.62507 13.023 6.46933C13.5327 6.24732 14.0538 6.16553 14.6257 6.16553C15.6315 6.16553 16.5961 6.56509 17.3074 7.27632C18.0186 7.98755 18.4182 8.95219 18.4182 9.95802C18.4182 11.5577 17.3625 12.7312 16.4949 13.5817L12.4127 17.6638C12.1848 17.8917 11.8154 17.8917 11.5875 17.6638L7.50677 13.5831C6.629 12.7341 5.58203 11.5622 5.58203 9.95802C5.58203 8.95219 5.9816 7.98755 6.69283 7.27632ZM9.37453 7.33245C8.67818 7.33245 8.01036 7.60907 7.51797 8.10146C7.02557 8.59385 6.74895 9.26168 6.74895 9.95802C6.74895 11.0356 7.44951 11.9047 8.32139 12.7476C8.32376 12.7498 8.32611 12.7522 8.32844 12.7545L12.0001 16.4261L15.6718 12.7545C15.6732 12.7531 15.6746 12.7517 15.676 12.7503C16.5466 11.8972 17.2512 11.0292 17.2512 9.95802C17.2512 9.26168 16.9746 8.59385 16.4822 8.10146C15.9898 7.60907 15.322 7.33245 14.6257 7.33245C14.1707 7.33245 13.8165 7.39652 13.489 7.53918C13.1577 7.68348 12.817 7.92414 12.4127 8.32848C12.1848 8.55633 11.8154 8.55633 11.5875 8.32848C11.1832 7.92414 10.8425 7.68348 10.5112 7.53918C10.1837 7.39652 9.82952 7.33245 9.37453 7.33245Z" fill="white"/>
<path d="M9.81055 6.74854L11.998 8.06104L14.623 6.74854L16.373 7.18604L17.248 8.49854L17.6855 10.686L15.9355 13.311L11.998 17.2485L6.74805 11.561L6.31055 9.37354L7.62305 7.18604L9.81055 6.74854Z" fill="white"/>
</svg>
