<svg width="84" height="80" viewBox="0 0 84 80" fill="none" xmlns="http://www.w3.org/2000/svg">
<g clip-path="url(#clip0_2068_12098)">
<path d="M31.2707 17.5923C13.7918 17.5923 2.64785 47.0228 2.14636 61.3598C0.558261 77.2401 12.2078 88.297 21.8673 85.6479C28.5952 84.2212 32.4504 86.1691 34.6457 86.6299C40.761 89.1519 49.4064 89.0843 55.123 88.4082C58.1814 88.0465 60.9732 86.4271 64.0201 85.9785C67.192 85.5114 70.4863 86.171 72.2353 86.6299C73.8584 87.0556 74.771 87.2437 76.0533 87.2234C79.7579 87.165 83.4485 85.9753 86.3725 83.6999C93.076 78.4834 95.0272 70.9518 93.7226 60.8305C90.2618 33.9817 74.1369 17.5923 65.0048 17.1136C61.6034 16.6278 58.6498 17.1907 55.8637 18.4774C53.2031 19.7061 50.7594 21.5629 47.8518 21.9285C45.6758 22.2021 43.361 21.9062 40.8957 20.7022C36.9462 18.7734 34.7351 17.5923 31.2707 17.5923Z" fill="#D2D6DB"/>
<path d="M45.0859 56.7656C45.1133 53.375 46.0156 52.3086 47.6562 51.2969C48.832 50.5312 49.7344 49.6836 49.7344 48.4258C49.7344 47.0586 48.668 46.1562 47.3555 46.1562C46.0703 46.1562 44.8945 47.0039 44.8398 48.6172H40.957C41.0391 44.7617 43.8828 42.9297 47.3828 42.9297C51.1836 42.9297 53.8906 44.9258 53.8906 48.2891C53.8906 50.5312 52.7422 51.9805 50.9375 53.0469C49.4062 53.9766 48.7227 54.8516 48.6953 56.7656V57.0664H45.0859V56.7656ZM46.9727 63.2461C45.6875 63.2461 44.6484 62.207 44.6758 60.9492C44.6484 59.6914 45.6875 58.6797 46.9727 58.6797C48.1758 58.6797 49.2422 59.6914 49.2422 60.9492C49.2422 62.207 48.1758 63.2461 46.9727 63.2461Z" fill="#F9FAFB"/>
</g>
<defs>
<clipPath id="clip0_2068_12098">
<rect width="84" height="80" fill="white"/>
</clipPath>
</defs>
</svg>
