<svg width="320" height="236" viewBox="0 0 320 236" fill="none" xmlns="http://www.w3.org/2000/svg">
<path d="M84.1126 192.077L102.626 93.523C103.336 89.7405 106.64 87 110.488 87H180.08C183.176 87 185.527 89.7847 185.009 92.8368L168.289 191.339C167.636 195.185 164.304 198 160.402 198H89.0267C85.8953 198 83.5345 195.154 84.1126 192.077Z" fill="#FFCF68"/>
<path d="M102.113 207.077L120.626 108.523C121.336 104.74 124.64 102 128.488 102H198.08C201.176 102 203.527 104.785 203.009 107.837L186.289 206.339C185.636 210.185 182.304 213 178.402 213H107.027C103.895 213 101.535 210.154 102.113 207.077Z" fill="#FFF1D3"/>
<path d="M131 119H156" stroke="#FF8400" stroke-width="2" stroke-linecap="round"/>
<path d="M127 131H187" stroke="#FF8400" stroke-width="2" stroke-linecap="round"/>
<path d="M124.055 145.671C124.216 144.707 125.05 144 126.028 144H184.639C185.875 144 186.815 145.11 186.612 146.329L183.945 162.329C183.784 163.293 182.95 164 181.972 164H123.361C122.125 164 121.185 162.89 121.388 161.671L124.055 145.671Z" fill="#FFCF68"/>
<path d="M119.102 171.666C119.265 170.704 120.098 170 121.074 170H180.633C181.871 170 182.812 171.113 182.605 172.334L179.898 188.334C179.735 189.296 178.902 190 177.926 190H118.367C117.129 190 116.188 188.887 116.395 187.666L119.102 171.666Z" fill="#FFCF68"/>
<path d="M245.209 132.549C246.457 131.302 248.48 131.302 249.728 132.549L255.941 138.762C257.189 140.01 257.189 142.033 255.941 143.281L215.274 183.948L204.543 173.216L245.209 132.549Z" fill="#FFB1CA"/>
<path d="M203.13 185.358L215.533 184.205L204.283 172.955L203.13 185.358Z" fill="#FFF1D3"/>
<path d="M203.131 185.361L207.873 185.02L203.471 180.618L203.131 185.361Z" fill="#18181B"/>
<rect x="242.386" y="135.373" width="15.1767" height="3.1951" transform="rotate(45 242.386 135.373)" fill="#EC4665"/>
<path d="M245.209 132.549C246.457 131.302 248.48 131.302 249.728 132.549L255.941 138.762C257.189 140.01 257.189 142.033 255.941 143.281L253.117 146.105L242.385 135.373L245.209 132.549Z" fill="#D2D6DB"/>
<path d="M74.6425 79.5074C75.0589 78.821 76.055 78.821 76.4715 79.5074L78.6522 83.102C78.7414 83.2491 78.8648 83.3725 79.0119 83.4617L82.6065 85.6425C83.293 86.0589 83.293 87.055 82.6065 87.4715L79.0119 89.6522C78.8648 89.7414 78.7414 89.8648 78.6522 90.0119L76.4715 93.6065C76.055 94.293 75.0589 94.293 74.6425 93.6065L72.4617 90.0119C72.3725 89.8648 72.2491 89.7414 72.102 89.6522L68.5074 87.4715C67.821 87.055 67.821 86.0589 68.5074 85.6425L72.102 83.4617C72.2491 83.3725 72.3725 83.2491 72.4617 83.102L74.6425 79.5074Z" fill="#FFDD62"/>
<path d="M79.5729 109.507C79.9893 108.821 80.9854 108.821 81.4018 109.507L83.1787 112.436C83.2679 112.583 83.3913 112.707 83.5384 112.796L86.4673 114.573C87.1537 114.989 87.1537 115.985 86.4673 116.402L83.5384 118.179C83.3913 118.268 83.2679 118.391 83.1787 118.538L81.4018 121.467C80.9854 122.154 79.9893 122.154 79.5729 121.467L77.796 118.538C77.7067 118.391 77.5834 118.268 77.4363 118.179L74.5074 116.402C73.821 115.985 73.821 114.989 74.5074 114.573L77.4363 112.796C77.5834 112.707 77.7067 112.583 77.796 112.436L79.5729 109.507Z" fill="#FFE78E"/>
<path d="M212.151 150.267C217.617 147.858 220.217 140.502 216.36 139.441C214.613 138.96 212.493 142.919 214.976 143.82C217.404 145.19 222.743 141.432 223.909 131.604" stroke="#D1D1D6" stroke-width="1.5" stroke-linecap="round" stroke-linejoin="round"/>
<line x1="207.646" y1="176.646" x2="243.355" y2="140.938" stroke="white"/>
<line x1="211.646" y1="180.646" x2="247.355" y2="144.938" stroke="white"/>
</svg>
