<svg width="84" height="80" viewBox="0 0 84 80" fill="none" xmlns="http://www.w3.org/2000/svg">
<g clip-path="url(#clip0_2068_12106)">
<path d="M41.1261 20.9545C37.386 18.8365 33.827 18.026 31.7875 17.9133C16.6488 17.0771 7.20626 29.8277 10.5231 42.6382C11.0985 44.8608 10.5666 47.2782 9.1122 49.0546C6.18051 52.6353 4.96222 56.5234 4.41584 59.8139C1.59479 76.8069 13.71 86.1115 23.1559 83.5209C29.7351 82.1258 33.5049 84.0306 35.6517 84.4812C42.6571 87.2626 50.2074 87.2941 55.337 86.6683C58.3264 86.3035 61.0438 84.7283 64.0034 84.171C67.2236 83.5647 70.6338 84.0278 72.362 84.4812C73.5469 84.792 74.3516 84.9733 75.2103 85.037C79.4305 85.35 83.6845 83.6356 86.7329 80.7004C92.8243 74.8349 94.1925 66.8871 92.5282 59.8139C91.6706 56.1691 89.5166 52.619 86.6645 50.012C85.3436 48.8046 84.634 46.9993 84.9772 45.2428C88.3378 28.04 78.3317 18.4453 65.9032 17.4453C61.0344 16.7498 55.7224 18.5146 52.6879 20.9545C48.2639 23.9835 43.0582 22.4188 41.1261 20.9545Z" fill="#D2D6DB"/>
<path d="M45.0859 56.7656C45.1133 53.375 46.0156 52.3086 47.6562 51.2969C48.832 50.5312 49.7344 49.6836 49.7344 48.4258C49.7344 47.0586 48.668 46.1562 47.3555 46.1562C46.0703 46.1562 44.8945 47.0039 44.8398 48.6172H40.957C41.0391 44.7617 43.8828 42.9297 47.3828 42.9297C51.1836 42.9297 53.8906 44.9258 53.8906 48.2891C53.8906 50.5312 52.7422 51.9805 50.9375 53.0469C49.4062 53.9766 48.7227 54.8516 48.6953 56.7656V57.0664H45.0859V56.7656ZM46.9727 63.2461C45.6875 63.2461 44.6484 62.207 44.6758 60.9492C44.6484 59.6914 45.6875 58.6797 46.9727 58.6797C48.1758 58.6797 49.2422 59.6914 49.2422 60.9492C49.2422 62.207 48.1758 63.2461 46.9727 63.2461Z" fill="#F9FAFB"/>
</g>
<defs>
<clipPath id="clip0_2068_12106">
<rect width="84" height="80" fill="white"/>
</clipPath>
</defs>
</svg>
