<svg width="29" height="28" viewBox="0 0 29 28" fill="none" xmlns="http://www.w3.org/2000/svg">
<rect x="0.5" width="28" height="28" rx="14" fill="currentColor"/>
<path fill-rule="evenodd" clip-rule="evenodd" d="M13.8203 5.9787C14.0159 5.83032 14.2547 5.75 14.5002 5.75C14.7457 5.75 14.9845 5.83032 15.1801 5.9787C15.3757 6.12708 15.5174 6.33537 15.5836 6.57181C15.585 6.57679 15.5863 6.58177 15.5876 6.58678L16.7733 11.1878C16.7733 11.1879 16.7733 11.188 16.7734 11.188C16.8069 11.3177 16.8745 11.4361 16.9692 11.5308C17.0639 11.6255 17.1823 11.6932 17.312 11.7267C17.3121 11.7267 17.3121 11.7267 17.3122 11.7267L21.9132 12.9124C21.9173 12.9135 21.9214 12.9146 21.9255 12.9157C22.1629 12.9812 22.3722 13.1227 22.5214 13.3186C22.6706 13.5145 22.7514 13.7539 22.7514 14.0002C22.7514 14.2464 22.6706 14.4859 22.5214 14.6818C22.3722 14.8777 22.1629 15.0192 21.9255 15.0847C21.9214 15.0858 21.9173 15.0869 21.9132 15.088L17.3122 16.2737C17.3121 16.2737 17.3121 16.2737 17.312 16.2737C17.1823 16.3072 17.0639 16.3748 16.9692 16.4696C16.8744 16.5643 16.8068 16.6828 16.7733 16.8125L15.5868 21.4137C15.5859 21.4173 15.585 21.4208 15.584 21.4243C15.5836 21.4257 15.5832 21.4271 15.5828 21.4286C15.5167 21.665 15.375 21.8733 15.1794 22.0217C14.9838 22.1701 14.745 22.2504 14.4995 22.2504C14.2539 22.2504 14.0152 22.1701 13.8196 22.0217C13.624 21.8733 13.4823 21.665 13.4161 21.4286C13.4147 21.4236 13.4134 21.4186 13.4121 21.4136L12.2264 16.8125C12.2263 16.8125 12.2263 16.8124 12.2263 16.8123C12.1928 16.6826 12.1252 16.5643 12.0305 16.4696C11.9357 16.3748 11.8173 16.3071 11.6875 16.2737L7.08631 15.0872C7.08045 15.0857 7.07461 15.0841 7.0688 15.0824C6.83329 15.0156 6.62602 14.8738 6.47842 14.6784C6.33083 14.4831 6.25098 14.245 6.25098 14.0002C6.25098 13.7554 6.33083 13.5173 6.47842 13.3219C6.62602 13.1266 6.83329 12.9848 7.0688 12.9179C7.07458 12.9163 7.08038 12.9147 7.0862 12.9132L11.6874 11.726L11.8748 12.4519L11.6876 11.7259C11.8173 11.6925 11.9357 11.6249 12.0305 11.5302C12.1253 11.4355 12.1929 11.3171 12.2265 11.1874L13.4128 6.58666C13.4141 6.5817 13.4155 6.57675 13.4168 6.57181C13.483 6.33538 13.6247 6.12708 13.8203 5.9787ZM12.0621 13.1784L8.87779 14.0001L12.0621 14.8212L12.0622 14.8212C12.4515 14.9217 12.8068 15.1246 13.0911 15.4089C13.3754 15.6932 13.5784 16.0485 13.6788 16.4378L14.4996 19.6228L15.3208 16.4379L15.3209 16.4378C15.4213 16.0485 15.6242 15.6932 15.9085 15.4089C16.1929 15.1246 16.5482 14.9217 16.9375 14.8212L20.1234 14.0002L16.9375 13.1792C16.5482 13.0787 16.1929 12.8758 15.9085 12.5915C15.6242 12.3072 15.4213 11.9519 15.3209 11.5625L15.3208 11.5623L14.5001 8.37759L13.6787 11.5629C13.5781 11.9521 13.3751 12.3071 13.0908 12.5912C12.8065 12.8753 12.4513 13.0781 12.0621 13.1784Z" fill="white"/>
<path d="M12.6998 12.2L14.4998 7.25L16.7498 12.2L21.6998 14L16.2998 15.8L14.4998 21.2L12.6998 15.8L7.2998 14L12.6998 12.2Z" fill="white"/>
</svg>
