<svg width="32" height="32" viewBox="0 0 32 32" fill="none" xmlns="http://www.w3.org/2000/svg">
<circle cx="16" cy="16" r="16" fill="#FFEAB0"/>
<path fill-rule="evenodd" clip-rule="evenodd" d="M15.9998 8.9934L14.4268 12.1808C14.2401 12.5588 13.9644 12.8857 13.6233 13.1335C13.2822 13.3812 12.886 13.5424 12.4688 13.6031L8.94826 14.1177L11.4943 16.5963L10.9145 17.1919L11.4944 16.5964C11.7968 16.8908 12.023 17.2544 12.1535 17.6558C12.284 18.0571 12.3149 18.4841 12.2436 18.9C12.2436 18.9001 12.2436 18.9001 12.2435 18.9001L11.6432 22.402L14.7898 20.7473C15.1629 20.5514 15.5779 20.449 15.9993 20.449C16.4207 20.449 16.8357 20.5514 17.2088 20.7473L20.357 22.4025L19.7559 18.8993L19.7558 18.8988C19.6848 18.4831 19.7158 18.0563 19.8463 17.6553C19.9768 17.2542 20.2027 16.8909 20.5048 16.5966L23.0499 14.1182L19.5287 13.6029C19.1121 13.5418 18.7165 13.3804 18.3759 13.1327C18.0354 12.8851 17.76 12.5584 17.5734 12.1809L15.9998 8.9934ZM10.3318 17.7905C10.3317 17.7905 10.3317 17.7905 10.3317 17.7904L7.22078 14.762C7.22025 14.7615 7.21973 14.761 7.2192 14.7605C7.04825 14.5948 6.92709 14.3845 6.86946 14.1535C6.81165 13.9218 6.82008 13.6785 6.8938 13.4514C6.96751 13.2242 7.10354 13.0223 7.2864 12.8687C7.46864 12.7156 7.69008 12.6165 7.92566 12.5828L12.2289 11.9538C12.3788 11.9319 12.5212 11.874 12.6438 11.785C12.7664 11.696 12.8655 11.5785 12.9326 11.4426L14.857 7.54291C14.9624 7.32991 15.1253 7.15062 15.3272 7.02527C15.5291 6.89992 15.7621 6.8335 15.9997 6.8335C16.2374 6.8335 16.4703 6.89992 16.6722 7.02527C16.8741 7.15062 17.037 7.32991 17.1424 7.54291L19.0676 11.4426C19.1347 11.5783 19.2337 11.6958 19.3562 11.7848C19.4787 11.8739 19.6209 11.9319 19.7707 11.9539L24.0742 12.5837C24.0745 12.5837 24.0749 12.5838 24.0752 12.5838C24.0753 12.5838 24.0753 12.5838 24.0754 12.5839C24.3104 12.6181 24.5312 12.7174 24.7129 12.8704C24.8948 13.0237 25.0303 13.2249 25.1039 13.4512C25.1775 13.6774 25.1863 13.9198 25.1293 14.1508C25.0723 14.3818 24.9518 14.5923 24.7815 14.7584L21.668 17.7902C21.5594 17.8961 21.4781 18.0267 21.4312 18.1709C21.3843 18.3151 21.3731 18.4684 21.3986 18.6178C21.3986 18.6179 21.3986 18.618 21.3986 18.6181L22.1328 22.8968C22.133 22.8976 22.1331 22.8984 22.1333 22.8993C22.1742 23.1339 22.1487 23.3753 22.0595 23.5961C21.9699 23.8177 21.8199 24.0097 21.6266 24.1502C21.4332 24.2906 21.2042 24.3739 20.9658 24.3905C20.7283 24.407 20.4909 24.3567 20.2805 24.2453C20.2797 24.2448 20.2789 24.2444 20.2781 24.244L16.434 22.2229C16.2999 22.1525 16.1507 22.1157 15.9993 22.1157C15.8479 22.1157 15.6987 22.1525 15.5646 22.2229C15.5646 22.2229 15.5646 22.2229 15.5646 22.2229L11.7196 24.2449C11.7192 24.2451 11.7187 24.2454 11.7183 24.2456C11.5077 24.3568 11.2702 24.4067 11.0327 24.3899C10.7946 24.3729 10.5661 24.2896 10.3731 24.1492C10.1802 24.0088 10.0304 23.8171 9.94099 23.5959C9.85182 23.3753 9.82616 23.1342 9.86689 22.8998C9.86701 22.8991 9.86713 22.8984 9.86725 22.8977L10.6009 18.6184C10.6265 18.4689 10.6154 18.3154 10.5685 18.1711C10.5216 18.0269 10.4404 17.8963 10.3318 17.7905Z" fill="#FCA350"/>
<path d="M13.0835 12.6668L15.5835 8.0835L18.9168 12.6668L24.3335 13.9168L20.5835 18.0835V23.0835L15.5835 21.0002L11.0002 23.5002L11.8335 18.0835L8.0835 13.5002L13.0835 12.6668Z" fill="#FCA350"/>
</svg>
