<svg width="24" height="24" viewBox="0 0 24 24" fill="none" xmlns="http://www.w3.org/2000/svg">
<rect width="24" height="24" rx="12" fill="#3F3F46"/>
<g clip-path="url(#clip0_12_8858)">
<path fill-rule="evenodd" clip-rule="evenodd" d="M11.3963 4.86979C11.5701 4.7379 11.7824 4.6665 12.0006 4.6665C12.2189 4.6665 12.4311 4.7379 12.605 4.86979C12.7789 5.00168 12.9048 5.18684 12.9636 5.397C12.9649 5.40142 12.966 5.40586 12.9672 5.4103L14.0212 9.50014C14.0212 9.50019 14.0212 9.50025 14.0212 9.5003C14.051 9.6156 14.1111 9.72081 14.1953 9.80501C14.2795 9.88921 14.3847 9.94932 14.5 9.97909C14.5 9.97911 14.5001 9.97912 14.5002 9.97914L18.59 11.0331C18.5936 11.034 18.5973 11.035 18.6009 11.036C18.8119 11.0942 18.998 11.22 19.1306 11.3942C19.2632 11.5683 19.335 11.7811 19.335 12C19.335 12.2189 19.2632 12.4317 19.1306 12.6058C18.998 12.78 18.8119 12.9058 18.6009 12.964C18.5973 12.965 18.5936 12.966 18.59 12.9669L14.5002 14.0209C14.5001 14.0209 14.5 14.0209 14.5 14.0209C14.3847 14.0507 14.2795 14.1108 14.1953 14.195C14.111 14.2792 14.0509 14.3845 14.0212 14.4999L12.9665 18.5898C12.9657 18.5929 12.9649 18.5961 12.964 18.5992C12.9637 18.6005 12.9633 18.6017 12.963 18.603C12.9041 18.8132 12.7782 18.9983 12.6043 19.1302C12.4304 19.2621 12.2182 19.3335 12 19.3335C11.7817 19.3335 11.5695 19.2621 11.3956 19.1302C11.2217 18.9983 11.0958 18.8132 11.037 18.603C11.0357 18.5986 11.0345 18.5941 11.0334 18.5897L9.97942 14.4999C9.97941 14.4998 9.97939 14.4998 9.97938 14.4997C9.9496 14.3844 9.88949 14.2792 9.80529 14.195C9.72105 14.1108 9.61578 14.0506 9.50042 14.0209L5.41049 12.9662C5.40528 12.9649 5.40009 12.9635 5.39492 12.962C5.18558 12.9026 5.00134 12.7765 4.87014 12.6029C4.73895 12.4293 4.66797 12.2176 4.66797 12C4.66797 11.7824 4.73895 11.5707 4.87014 11.3971C5.00134 11.2235 5.18558 11.0974 5.39492 11.038C5.40006 11.0365 5.40522 11.0351 5.41039 11.0338L9.50039 9.97848L9.66689 10.6237L9.50051 9.97845C9.61583 9.94872 9.72108 9.88864 9.80531 9.80446C9.88955 9.72028 9.9497 9.61508 9.97951 9.49978L11.0341 5.41021C11.0352 5.40579 11.0364 5.40139 11.0376 5.397C11.0964 5.18684 11.2224 5.00169 11.3963 4.86979ZM9.83339 11.2696L7.00292 11.9999L9.83342 12.7298L9.83348 12.7298C10.1796 12.8191 10.4954 12.9995 10.7481 13.2522C11.0008 13.5049 11.1812 13.8207 11.2705 14.1668L12.0001 16.9979L12.7301 14.1669L12.7301 14.1668C12.8194 13.8207 12.9997 13.5049 13.2525 13.2522C13.5052 12.9995 13.821 12.8191 14.1671 12.7298L16.999 12L14.1671 11.2702C13.821 11.1809 13.5052 11.0005 13.2525 10.7478C12.9997 10.4951 12.8194 10.1793 12.7301 9.8332L12.73 9.83304L12.0005 7.00214L11.2704 9.83356C11.181 10.1794 11.0005 10.4951 10.7478 10.7476C10.4951 11.0001 10.1793 11.1804 9.83339 11.2696Z" fill="#FCFCFC"/>
<path d="M10.3996 10.4L11.9996 6L13.9996 10.4L18.3996 12L13.5996 13.6L11.9996 18.4L10.3996 13.6L5.59961 12L10.3996 10.4Z" fill="#FCFCFC"/>
</g>
<defs>
<clipPath id="clip0_12_8858">
<rect width="16" height="16" fill="white" transform="translate(4 4)"/>
</clipPath>
</defs>
</svg>
