<svg width="24" height="24" viewBox="0 0 24 24" fill="none" xmlns="http://www.w3.org/2000/svg">
<rect width="24" height="24" rx="12" fill="#EC4665"/>
<g clip-path="url(#clip0_1531_8689)">
<path fill-rule="evenodd" clip-rule="evenodd" d="M11.3963 4.87028C11.5701 4.73839 11.7824 4.66699 12.0006 4.66699C12.2189 4.66699 12.4311 4.73839 12.605 4.87028C12.7788 5.00217 12.9048 5.18733 12.9636 5.39749C12.9649 5.40191 12.966 5.40635 12.9672 5.41079L14.0212 9.50063C14.0212 9.50068 14.0212 9.50074 14.0212 9.50079C14.051 9.61608 14.1111 9.7213 14.1953 9.8055C14.2795 9.8897 14.3847 9.94981 14.5 9.97958C14.5 9.9796 14.5001 9.97961 14.5002 9.97963L18.59 11.0336C18.5936 11.0345 18.5973 11.0355 18.6009 11.0365C18.8119 11.0947 18.998 11.2205 19.1306 11.3946C19.2632 11.5688 19.335 11.7816 19.335 12.0005C19.335 12.2194 19.2632 12.4322 19.1306 12.6063C18.998 12.7805 18.8119 12.9063 18.6009 12.9645C18.5973 12.9655 18.5936 12.9665 18.59 12.9674L14.5002 14.0214C14.5001 14.0214 14.5 14.0214 14.5 14.0214C14.3847 14.0512 14.2795 14.1113 14.1953 14.1955C14.111 14.2797 14.0509 14.385 14.0212 14.5004L12.9665 18.5903C12.9657 18.5934 12.9649 18.5966 12.964 18.5997C12.9637 18.601 12.9633 18.6022 12.963 18.6035C12.9041 18.8137 12.7782 18.9988 12.6043 19.1307C12.4304 19.2626 12.2182 19.334 12 19.334C11.7817 19.334 11.5695 19.2626 11.3956 19.1307C11.2217 18.9988 11.0958 18.8137 11.037 18.6035C11.0357 18.5991 11.0345 18.5946 11.0334 18.5902L9.97942 14.5004C9.97941 14.5003 9.97939 14.5002 9.97938 14.5002C9.9496 14.3849 9.88949 14.2797 9.80529 14.1955C9.72105 14.1112 9.61578 14.0511 9.50042 14.0214L5.41049 12.9667C5.40528 12.9654 5.40009 12.964 5.39492 12.9625C5.18558 12.9031 5.00134 12.777 4.87014 12.6034C4.73895 12.4298 4.66797 12.2181 4.66797 12.0005C4.66797 11.7829 4.73895 11.5712 4.87014 11.3976C5.00134 11.224 5.18558 11.0979 5.39492 11.0385C5.40006 11.037 5.40522 11.0356 5.41039 11.0343L9.50039 9.97897L9.66689 10.6242L9.50051 9.97894C9.61583 9.9492 9.72108 9.88913 9.80531 9.80495C9.88955 9.72077 9.9497 9.61556 9.97951 9.50027L11.0341 5.41069C11.0352 5.40628 11.0364 5.40188 11.0376 5.39749C11.0964 5.18733 11.2224 5.00217 11.3963 4.87028ZM9.83339 11.27L7.00292 12.0004L9.83342 12.7303L9.83348 12.7303C10.1796 12.8196 10.4954 13 10.7481 13.2527C11.0008 13.5054 11.1812 13.8212 11.2705 14.1673L12.0001 16.9984L12.7301 14.1674L12.7301 14.1673C12.8194 13.8212 12.9997 13.5054 13.2525 13.2527C13.5052 13 13.821 12.8196 14.1671 12.7303L16.9991 12.0005L14.1671 11.2707C13.821 11.1814 13.5052 11.001 13.2525 10.7483C12.9997 10.4956 12.8194 10.1798 12.7301 9.83369L12.73 9.83352L12.0005 7.00262L11.2704 9.83405C11.181 10.1799 11.0005 10.4956 10.7478 10.7481C10.4951 11.0006 10.1793 11.1809 9.83339 11.27Z" fill="#FCFCFC"/>
<path d="M10.3996 10.4L11.9996 6L13.9996 10.4L18.3996 12L13.5996 13.6L11.9996 18.4L10.3996 13.6L5.59961 12L10.3996 10.4Z" fill="#FCFCFC"/>
</g>
<defs>
<clipPath id="clip0_1531_8689">
<rect width="16" height="16" fill="white" transform="translate(4 4)"/>
</clipPath>
</defs>
</svg>
