<svg width="24" height="24" viewBox="0 0 24 24" fill="none" xmlns="http://www.w3.org/2000/svg">
    <g clip-path="url(#clip0_17558_2875)">
        <path d="M16.8503 0H7.14973C3.20735 0 0 3.20735 0 7.14973V16.8503C0 20.7926 3.20735 24 7.14973 24H16.8503C20.7926 24 24 20.7926 24 16.8503V7.14973C24 3.20735 20.7926 0 16.8503 0ZM21.5856 16.8503C21.5856 19.4655 19.4655 21.5856 16.8503 21.5856H7.14973C4.5345 21.5856 2.4144 19.4655 2.4144 16.8503V7.14973C2.4144 4.53446 4.5345 2.4144 7.14973 2.4144H16.8503C19.4655 2.4144 21.5856 4.53446 21.5856 7.14973V16.8503Z"
              fill="#737373"/>
        <path d="M12 5.79276C8.57729 5.79276 5.79272 8.57732 5.79272 12C5.79272 15.4226 8.57729 18.2072 12 18.2072C15.4227 18.2072 18.2072 15.4227 18.2072 12C18.2072 8.57728 15.4227 5.79276 12 5.79276ZM12 15.7929C9.90523 15.7929 8.20712 14.0948 8.20712 12C8.20712 9.90526 9.90527 8.20715 12 8.20715C14.0947 8.20715 15.7928 9.90526 15.7928 12C15.7928 14.0947 14.0947 15.7929 12 15.7929Z"
              fill="#737373"/>
        <path d="M18.2193 7.32673C19.0408 7.32673 19.7067 6.66081 19.7067 5.83935C19.7067 5.01788 19.0408 4.35196 18.2193 4.35196C17.3979 4.35196 16.7319 5.01788 16.7319 5.83935C16.7319 6.66081 17.3979 7.32673 18.2193 7.32673Z"
              fill="#737373"/>
    </g>
    <defs>
        <clipPath id="clip0_17558_2875">
            <rect width="24" height="24" fill="white"/>
        </clipPath>
    </defs>
</svg>
