<svg width="24" height="24" viewBox="0 0 24 24" fill="none" xmlns="http://www.w3.org/2000/svg">
    <g clip-path="url(#clip0_17566_7730)">
        <path d="M5.24239 9.11719C5.07895 9.11719 4.91919 9.16509 4.78329 9.25483C4.64739 9.34457 4.54146 9.47212 4.47891 9.62136C4.41637 9.77059 4.40001 9.9348 4.4319 10.0932C4.46378 10.2517 4.54249 10.3972 4.65806 10.5114C4.77363 10.6256 4.92088 10.7034 5.08118 10.7349C5.24148 10.7664 5.40764 10.7502 5.55864 10.6884C5.70964 10.6266 5.8387 10.5219 5.9295 10.3876C6.02031 10.2533 6.06878 10.0954 6.06878 9.9339C6.06878 9.71729 5.98171 9.50955 5.82674 9.35639C5.67176 9.20323 5.46156 9.11719 5.24239 9.11719Z"
              fill="#737373"/>
        <path d="M13.4055 9.0332C13.2295 9.0332 13.0575 9.08478 12.9111 9.18142C12.7648 9.27805 12.6507 9.4154 12.5834 9.5761C12.516 9.7368 12.4984 9.91363 12.5327 10.0842C12.567 10.2548 12.6518 10.4115 12.7762 10.5346C12.9007 10.6576 13.0592 10.7413 13.2318 10.7753C13.4044 10.8092 13.5834 10.7918 13.746 10.7253C13.9086 10.6587 14.0476 10.546 14.1454 10.4014C14.2432 10.2568 14.2954 10.0868 14.2955 9.91284C14.2955 9.79733 14.2725 9.68296 14.2278 9.57623C14.183 9.46951 14.1175 9.37254 14.0349 9.29086C13.9522 9.20917 13.8541 9.14438 13.7461 9.10017C13.6381 9.05596 13.5224 9.0332 13.4055 9.0332Z"
              fill="#737373"/>
        <path d="M20.7953 1H3.21644C2.79482 0.999962 2.37733 1.082 1.98779 1.24143C1.59826 1.40087 1.24432 1.63458 0.946181 1.92922C0.648044 2.22385 0.411549 2.57364 0.250207 2.9586C0.0888641 3.34357 0.0058402 3.75618 0.00585939 4.17286V14.4836C0.00582102 14.9003 0.088837 15.3129 0.250171 15.6979C0.411505 16.0829 0.647989 16.4327 0.946128 16.7273C1.24427 17.022 1.59821 17.2557 1.98775 17.4152C2.3773 17.5746 2.79481 17.6567 3.21644 17.6566H9.42513L11.5374 22.5739C11.5374 22.5739 11.6827 23.0001 12.0347 23.0001C12.3868 23.0001 12.532 22.5739 12.532 22.5739L14.6437 17.6568H20.7957C21.6472 17.6568 22.4638 17.3225 23.0659 16.7274C23.668 16.1324 24.0063 15.3253 24.0063 14.4838V4.173C24.0063 3.75628 23.9232 3.34364 23.7619 2.95865C23.6005 2.57365 23.364 2.22384 23.0658 1.9292C22.7676 1.63455 22.4136 1.40084 22.024 1.24141C21.6345 1.08197 21.2169 0.999943 20.7953 1ZM7.54582 10.1146C7.53589 11.999 5.56385 12.0533 5.56385 12.0533C5.34113 12.054 5.12055 12.0101 4.91548 11.9242C4.71041 11.8383 4.5251 11.7122 4.37073 11.5535V11.8933H2.93471V6.0404C2.92901 6.03939 2.92828 6.03838 2.93471 6.03708V6.0404C3.0238 6.05484 4.37087 6.03708 4.37087 6.03708V8.27501C4.70856 7.70586 5.68538 7.71524 5.68538 7.71524C7.81165 7.91184 7.54582 10.1146 7.54582 10.1146ZM10.074 7.89582V11.9034H8.66841V7.93595C8.66841 7.39624 7.99085 7.24627 7.99085 7.24627V5.84713C10.2359 5.93662 10.074 7.89582 10.074 7.89582ZM13.406 12.0559C12.1048 12.0559 11.0499 11.096 11.0499 9.91219C11.0499 8.72841 12.1048 7.76837 13.406 7.76837C14.7072 7.76837 15.7622 8.72812 15.7622 9.91219C15.7622 11.0963 14.7068 12.0559 13.406 12.0559ZM21.1066 12.0559C21.1066 12.0559 21.1268 14.092 19.0337 14.092H18.3966V12.7728H18.7809C18.7809 12.7728 19.6604 12.8528 19.6503 11.5136C19.6503 11.5136 19.4786 12.0559 18.2448 12.0559C18.2448 12.0559 16.4954 11.9311 16.4954 10.2443V9.60473C16.4954 9.60473 16.5358 7.85584 18.4572 7.71582C18.6902 7.70031 18.9235 7.74138 19.1368 7.83546C19.3501 7.92953 19.5368 8.07375 19.6807 8.25553V7.82581H21.1066V12.0559Z"
              fill="#737373"/>
        <path d="M18.8714 9.05273C18.6994 9.05276 18.5313 9.10319 18.3883 9.19764C18.2454 9.29208 18.1339 9.42631 18.0681 9.58334C18.0023 9.74038 17.9851 9.91317 18.0187 10.0799C18.0522 10.2466 18.135 10.3997 18.2567 10.5199C18.3783 10.6401 18.5332 10.7219 18.7019 10.7551C18.8706 10.7883 19.0454 10.7712 19.2043 10.7062C19.3632 10.6412 19.499 10.531 19.5946 10.3897C19.6901 10.2484 19.7411 10.0823 19.7412 9.91231C19.7412 9.79943 19.7187 9.68764 19.675 9.58334C19.6313 9.47905 19.5673 9.38428 19.4865 9.30446C19.4057 9.22464 19.3098 9.16132 19.2043 9.11813C19.0988 9.07494 18.9856 9.05272 18.8714 9.05273Z"
              fill="#737373"/>
    </g>
    <defs>
        <clipPath id="clip0_17566_7730">
            <rect width="24" height="24" fill="white"/>
        </clipPath>
    </defs>
</svg>
