<svg width="24" height="24" viewBox="0 0 24 24" fill="none" xmlns="http://www.w3.org/2000/svg">
<path fill-rule="evenodd" clip-rule="evenodd" d="M8.58579 11.5858C8.96086 11.2107 9.46957 11 10 11H14C14.5304 11 15.0391 11.2107 15.4142 11.5858C15.7893 11.9609 16 12.4696 16 13V21C16 21.5523 15.5523 22 15 22C14.4477 22 14 21.5523 14 21V13L10 13L10 21C10 21.5523 9.55228 22 9 22C8.44772 22 8 21.5523 8 21V13C8 12.4696 8.21071 11.9609 8.58579 11.5858Z" fill="#3F3F46"/>
<path fill-rule="evenodd" clip-rule="evenodd" d="M11.3567 3.23538L4.35973 9.23177C4.35799 9.23326 4.35625 9.23474 4.3545 9.23622C4.2434 9.33011 4.15412 9.44712 4.09289 9.57907C4.03167 9.71103 3.99997 9.85475 4 10.0002V19.0005C4 19.2657 4.10536 19.52 4.29289 19.7076C4.48043 19.8951 4.73478 20.0005 5 20.0005H19C19.2652 20.0005 19.5196 19.8951 19.7071 19.7076C19.8946 19.52 20 19.2657 20 19.0005V10.0002C20 9.85475 19.9683 9.71103 19.9071 9.57907C19.8459 9.44712 19.7566 9.33011 19.6455 9.23622C19.6438 9.23474 19.642 9.23326 19.6403 9.23177L12.6433 3.23538C12.4632 3.084 12.2354 3.00098 12 3.00098C11.7646 3.00098 11.5368 3.084 11.3567 3.23538ZM10.0635 1.7097C10.605 1.25206 11.291 1.00098 12 1.00098C12.709 1.00098 13.395 1.25206 13.9365 1.7097C13.9382 1.71117 13.94 1.71266 13.9417 1.71415L20.9394 7.71119C21.2714 7.99246 21.5382 8.34258 21.7213 8.73727C21.905 9.13306 22.0001 9.56414 22 10.0005C22 10.0005 22 10.0006 22 10.0007V19.0005C22 19.7961 21.6839 20.5592 21.1213 21.1218C20.5587 21.6844 19.7957 22.0005 19 22.0005H5C4.20435 22.0005 3.44129 21.6844 2.87868 21.1218C2.31607 20.5592 2 19.7961 2 19.0005V10.0007C2 10.0006 2 10.0005 2 10.0005C1.99993 9.56414 2.09503 9.13306 2.27868 8.73727C2.46183 8.34256 2.72865 7.99242 3.06061 7.71114L10.0583 1.71415C10.06 1.71266 10.0618 1.71117 10.0635 1.7097Z" fill="#3F3F46"/>
<path d="M3.5 21V9.5L12 2L21 9.5V20.5H14.5V12.5H9V21H3.5Z" fill="#3F3F46"/>
<path fill-rule="evenodd" clip-rule="evenodd" d="M9.43934 12.426C9.72064 12.1532 10.1022 12 10.5 12H13.5C13.8978 12 14.2794 12.1532 14.5607 12.426C14.842 12.6988 15 13.0688 15 13.4545V19.2727C15 19.6744 14.6642 20 14.25 20C13.8358 20 13.5 19.6744 13.5 19.2727V13.4545L10.5 13.4545L10.5 19.2727C10.5 19.6744 10.1642 20 9.75 20C9.33579 20 9 19.6744 9 19.2727V13.4545C9 13.0688 9.15804 12.6988 9.43934 12.426Z" fill="white"/>
<rect x="9" y="13" width="6" height="9" fill="white"/>
</svg>
