<svg width="24" height="24" viewBox="0 0 24 24" fill="none" xmlns="http://www.w3.org/2000/svg">
<path fill-rule="evenodd" clip-rule="evenodd" d="M6.11896 3.91008C8.04524 2.50653 10.4095 1.83712 12.7856 2.02249C15.1618 2.20787 17.3936 3.23583 19.0789 4.92113C20.7642 6.60644 21.7922 8.83827 21.9776 11.2144C22.163 13.5906 21.4935 15.9548 20.09 17.8811C18.6864 19.8074 16.641 21.169 14.3224 21.7207C12.1442 22.2389 9.85945 22.0103 7.83253 21.0788L2.32107 22.9471C1.96061 23.0693 1.56205 22.9763 1.29292 22.7072C1.02379 22.438 0.930774 22.0395 1.05296 21.679L2.92125 16.1675C1.98982 14.1406 1.7612 11.8559 2.2794 9.67771C2.83104 7.35904 4.19268 5.31364 6.11896 3.91008ZM12.6301 4.01644C10.7292 3.86814 8.83776 4.40366 7.29674 5.52651C5.75572 6.64935 4.6664 8.28568 4.2251 10.1406C3.78379 11.9955 4.01951 13.9471 4.88979 15.6436C5.01328 15.8844 5.03395 16.1649 4.94709 16.4211L3.5974 20.4027L7.57899 19.053C7.83523 18.9661 8.11572 18.9868 8.35646 19.1103C10.053 19.9806 12.0045 20.2163 13.8595 19.775C15.7144 19.3337 17.3507 18.2444 18.4736 16.7033C19.5964 15.1623 20.1319 13.2709 19.9836 11.37C19.8353 9.46905 19.013 7.68359 17.6647 6.33535C16.3165 4.9871 14.531 4.16473 12.6301 4.01644Z" fill="#D1D1D6"/>
<path fill-rule="evenodd" clip-rule="evenodd" d="M11.9236 8.20544C12.531 7.7408 13.2776 7.48535 14.0501 7.48535C14.8789 7.48535 15.6778 7.77931 16.307 8.31013C16.4122 8.36414 16.5096 8.43787 16.5934 8.53103C17.1979 9.20263 17.5553 10.0687 17.5375 10.9942C17.5195 11.9282 17.1212 12.8431 16.3572 13.6071C16.3539 13.6104 16.3506 13.6137 16.3472 13.617L12.7472 17.117C12.3591 17.4943 11.7412 17.4943 11.3531 17.117L7.79995 13.6626C7.44123 13.3893 7.13989 13.0475 6.91353 12.6569C6.67417 12.2438 6.52394 11.7852 6.47253 11.3105C6.42111 10.8359 6.46964 10.3557 6.615 9.90097C6.76036 9.44621 6.99931 9.02692 7.3165 8.67009C7.63368 8.31326 8.02206 8.02679 8.45664 7.82912C8.89122 7.63145 9.36237 7.52696 9.83977 7.52237C10.3172 7.51779 10.7902 7.6132 11.2285 7.80249C11.4759 7.90932 11.7091 8.04471 11.9236 8.20544ZM13.0486 9.86865L12.8001 10.2C12.6342 10.4212 12.3841 10.5639 12.1093 10.594C11.8344 10.6242 11.5593 10.5392 11.3493 10.3593L10.9993 10.0593C10.9699 10.034 10.9419 10.0071 10.9156 9.9786C10.7811 9.833 10.6176 9.71718 10.4356 9.63859C10.2536 9.56 10.0572 9.52038 9.85899 9.52228C9.66077 9.52419 9.46515 9.56757 9.28471 9.64965C9.10427 9.73172 8.94301 9.85066 8.81132 9.99882C8.67962 10.147 8.5804 10.3211 8.52005 10.5099C8.4597 10.6987 8.43955 10.8981 8.4609 11.0951C8.48224 11.2922 8.54462 11.4826 8.644 11.6542C8.74339 11.8257 8.87758 11.9745 9.03795 12.091C9.07652 12.119 9.11303 12.1498 9.14722 12.183L12.0501 15.0053L14.9476 12.1883C15.3801 11.7538 15.5308 11.3205 15.5378 10.9558C15.5439 10.6383 15.4424 10.314 15.2312 10.0226C15.1853 9.99073 15.1414 9.95458 15.1001 9.91414C14.8197 9.6393 14.4428 9.48535 14.0501 9.48535C13.6797 9.48535 13.3232 9.62237 13.0486 9.86865Z" fill="#D1D1D6"/>
</svg>
